<svg width="12" height="12" viewBox="0 0 12 12" fill="none" xmlns="http://www.w3.org/2000/svg">
<g clip-path="url(#clip0_482_185)">
<path  fill="white" d="M10.25 5C10.25 4.86193 10.1381 4.75 10 4.75H5C4.86193 4.75 4.75 4.86193 4.75 5V10C4.75 10.1381 4.86193 10.25 5 10.25H10C10.1381 10.25 10.25 10.1381 10.25 10V5ZM7.25 2C7.25 1.86421 7.13579 1.75 7 1.75H2C1.86421 1.75 1.75 1.86421 1.75 2V7C1.75 7.11881 1.83737 7.22139 1.9502 7.24512L2 7.25L2.07715 7.25391C2.45512 7.29253 2.75 7.61183 2.75 8C2.75 8.38817 2.45512 8.70747 2.07715 8.74609L2 8.75L1.82129 8.74121C0.940535 8.65129 0.25 7.90391 0.25 7V2C0.25 1.03579 1.03579 0.25 2 0.25H7C7.96421 0.25 8.75 1.03579 8.75 2C8.75 2.41421 8.41421 2.75 8 2.75C7.58579 2.75 7.25 2.41421 7.25 2ZM11.75 10C11.75 10.9665 10.9665 11.75 10 11.75H5C4.0335 11.75 3.25 10.9665 3.25 10V5C3.25 4.0335 4.0335 3.25 5 3.25H10C10.9665 3.25 11.75 4.0335 11.75 5V10Z"/>
</g>
<defs>
<clipPath id="clip0_482_185">
<rect width="12" height="12" fill="white"/>
</clipPath>
</defs>
</svg>
