<svg width="216" height="216" viewBox="0 0 216 216" fill="none" xmlns="http://www.w3.org/2000/svg">
<ellipse cx="106.864" cy="65.0921" rx="44.9613" ry="43.0921" fill="#CD5C5C"/>
<ellipse cx="149.039" cy="86.5176" rx="44.9613" ry="43.0921" fill="#6495ED"/>
<ellipse cx="147.993" cy="130.275" rx="44.9613" ry="43.0921" fill="#DAA520"/>
<ellipse cx="106.772" cy="150.908" rx="44.9613" ry="43.0921" fill="#663399"/>
<path d="M65.7106 82.4714C72.6825 97.6143 88.4848 108.184 106.864 108.184C107.702 108.184 108.534 108.16 109.36 108.117C111.808 113.433 113.17 119.312 113.17 125.496C113.169 149.295 93.039 168.588 68.2076 168.588C43.3764 168.587 23.2468 149.295 23.2467 125.496C23.2467 102.5 42.0408 83.7135 65.7106 82.4714Z" fill="#D2691E"/>
<path d="M64.2139 50.8892C62.7156 55.1848 61.9023 59.7813 61.9023 64.5601C61.9023 88.3591 82.032 107.652 106.863 107.652C107.786 107.652 108.702 107.622 109.61 107.57C103.647 124.667 86.8061 136.991 66.9609 136.991C42.1297 136.991 22 117.697 22 93.8979C22.0002 70.9833 40.6621 52.2499 64.2139 50.8892Z" fill="#6B8E23"/>
</svg>
