<svg width="216" height="216" viewBox="0 0 216 216" fill="none" xmlns="http://www.w3.org/2000/svg">
<ellipse cx="107.961" cy="64.7236" rx="44.9613" ry="43.0921" fill="#DC143C"/>
<ellipse cx="147.129" cy="86.5176" rx="44.9613" ry="43.0921" fill="#00FFFF"/>
<ellipse cx="146.88" cy="129.61" rx="44.9613" ry="43.0921" fill="#FF8C00"/>
<ellipse cx="107.961" cy="150.908" rx="44.9613" ry="43.0921" fill="#DA70D6"/>
<path d="M69.584 87.1842C77.4846 99.5581 91.7163 107.816 107.961 107.816C107.998 107.816 108.036 107.814 108.073 107.814C112.25 114.355 114.659 122.045 114.659 130.275C114.659 154.074 94.5287 173.367 69.6973 173.367C44.8661 173.367 24.7363 154.074 24.7363 130.275C24.7363 106.512 44.8049 87.243 69.584 87.1842Z" fill="#70D709"/>
<path d="M68.8672 43.4264C65.1337 49.7081 63.0001 56.9767 63 64.7233C63 88.5223 83.1297 107.816 107.961 107.816C107.992 107.816 108.024 107.814 108.055 107.814C100.318 120.831 85.7098 129.61 68.9609 129.61C44.1297 129.61 24 110.316 24 86.5172C24.0002 62.7483 44.0791 43.4751 68.8672 43.4264Z" fill="#0000FF"/>
</svg>
